<?xml version="1.0" standalone="no"?>
<!DOCTYPE svg PUBLIC "-//W3C//DTD SVG 20010904//EN"
 "http://www.w3.org/TR/2001/REC-SVG-20010904/DTD/svg10.dtd">
<svg version="1.0" xmlns="http://www.w3.org/2000/svg"
 width="744.000000pt" height="744.000000pt" viewBox="0 0 744.000000 744.000000"
 preserveAspectRatio="xMidYMid meet">
<metadata>
Created by potrace 1.14, written by Peter Selinger 2001-2017
</metadata>
<g transform="translate(0.000000,744.000000) scale(0.100000,-0.100000)"
fill="#000000" stroke="none">
<path d="M3458 7195 c-2 -2 -43 -6 -93 -10 -49 -4 -103 -9 -120 -10 -43 -4
-136 -15 -165 -20 -14 -2 -54 -9 -90 -15 -36 -5 -76 -12 -90 -15 -14 -3 -38
-8 -55 -11 -26 -4 -84 -17 -137 -30 -10 -2 -26 -6 -35 -8 -18 -4 -89 -23 -188
-51 -27 -8 -70 -21 -95 -30 -25 -9 -52 -18 -60 -20 -34 -8 -215 -80 -218 -87
-2 -5 -10 -8 -18 -8 -14 0 -94 -35 -209 -93 -121 -60 -138 -69 -217 -119 -43
-26 -82 -48 -87 -48 -5 0 -11 -4 -13 -8 -1 -4 -21 -19 -43 -32 -22 -13 -44
-28 -50 -33 -5 -4 -40 -29 -76 -55 -75 -53 -127 -92 -143 -107 -6 -6 -33 -28
-60 -50 -182 -147 -412 -391 -558 -595 -26 -36 -51 -70 -55 -75 -25 -31 -103
-156 -103 -165 0 -5 -4 -10 -8 -10 -5 0 -19 -22 -32 -50 -13 -27 -26 -50 -30
-50 -3 0 -12 -17 -19 -37 -8 -21 -17 -40 -20 -43 -7 -5 -81 -157 -81 -165 0
-3 -13 -33 -29 -67 -15 -35 -36 -88 -46 -118 -10 -30 -21 -59 -25 -65 -4 -5
-13 -32 -20 -60 -7 -27 -16 -54 -19 -60 -3 -5 -6 -14 -7 -20 -1 -5 -9 -37 -19
-70 -24 -87 -75 -332 -80 -385 -2 -25 -6 -52 -9 -60 -5 -15 -11 -69 -23 -215
-9 -103 -8 -538 1 -630 19 -191 32 -285 72 -490 10 -50 71 -275 87 -315 3 -8
13 -37 22 -65 19 -56 26 -75 48 -125 9 -19 23 -55 33 -80 25 -63 126 -258 177
-341 23 -39 48 -82 56 -97 8 -15 17 -29 20 -32 4 -3 24 -32 46 -65 51 -77 187
-257 239 -315 131 -145 356 -358 461 -437 17 -12 53 -41 82 -63 29 -22 57 -40
62 -40 5 0 11 -3 13 -8 2 -4 30 -25 63 -46 33 -22 79 -52 103 -68 24 -15 45
-28 47 -28 3 0 38 -19 78 -42 40 -24 105 -59 143 -78 38 -19 70 -38 72 -42 2
-5 10 -8 18 -8 7 0 29 -9 49 -20 19 -11 35 -17 35 -14 0 4 6 2 13 -4 11 -9
127 -60 152 -66 11 -3 40 -14 70 -26 37 -15 120 -44 130 -46 6 -1 37 -10 70
-20 124 -37 255 -71 310 -79 11 -2 20 -4 20 -5 0 -1 9 -3 20 -5 11 -2 49 -8
85 -15 36 -6 79 -13 95 -16 17 -2 41 -6 55 -9 14 -2 50 -7 80 -10 30 -3 75 -8
100 -11 144 -15 233 -18 490 -18 262 1 396 6 493 19 20 3 54 7 75 10 103 12
131 16 177 25 28 5 61 11 75 14 14 2 36 7 50 10 14 3 37 8 53 10 15 3 35 7 45
10 9 3 28 7 42 10 14 3 40 9 58 15 18 5 33 10 35 9 25 -4 380 117 502 172 101
46 156 69 162 69 3 -1 9 3 12 8 3 4 33 21 66 38 33 16 72 38 88 48 15 10 27
15 27 10 0 -4 4 -3 8 2 4 6 18 16 31 23 13 8 39 23 59 33 262 148 587 414 795
653 29 33 59 67 67 76 8 8 28 34 45 55 16 22 38 49 48 60 10 11 63 88 118 170
54 83 104 155 109 162 6 7 10 14 10 16 0 2 26 50 58 108 52 95 71 133 145 299
21 49 50 126 52 140 0 3 4 10 8 17 15 24 95 300 111 383 2 14 9 46 15 73 6 26
14 64 17 85 3 20 9 52 14 70 5 19 5 30 -1 27 -5 -4 -5 5 1 20 37 98 48 804 14
967 -2 13 -6 39 -9 58 -6 46 -18 134 -20 140 -1 3 -5 28 -10 55 -5 28 -10 52
-10 55 -2 8 -15 59 -40 160 -14 52 -33 120 -43 150 -11 30 -20 60 -22 65 -5
21 -12 41 -20 60 -4 11 -23 58 -41 105 -18 47 -39 95 -47 108 -8 12 -12 22 -8
22 6 0 -101 212 -152 300 -44 76 -115 185 -124 188 -4 2 -8 8 -8 13 0 20 -188
263 -284 368 -69 75 -199 203 -271 266 -38 33 -77 68 -87 78 -10 9 -20 17 -23
17 -4 0 -31 21 -59 45 -6 6 -36 28 -66 50 -30 22 -57 42 -60 45 -13 14 -210
140 -219 140 -6 0 -11 4 -11 9 0 5 -8 11 -17 15 -10 3 -34 15 -53 27 -53 33
-299 155 -361 179 -30 12 -67 27 -84 35 -85 37 -255 96 -255 88 0 -3 -6 -1
-12 5 -7 5 -29 13 -48 18 -43 10 -42 9 -60 17 -8 4 -24 8 -35 10 -11 1 -24 5
-30 8 -5 4 -28 10 -50 14 -22 5 -47 10 -55 12 -8 2 -24 6 -35 8 -11 2 -42 9
-70 15 -27 6 -63 13 -80 16 -16 2 -37 7 -45 9 -8 2 -34 6 -57 9 -24 4 -61 8
-83 11 -65 9 -202 26 -260 31 -44 5 -628 13 -632 9z m512 -1579 c30 -4 66 -9
80 -12 14 -3 34 -7 45 -9 47 -8 184 -47 235 -66 30 -12 60 -22 65 -23 6 -1 27
-10 49 -19 21 -9 42 -17 47 -17 5 0 9 -5 9 -12 0 -6 3 -8 7 -5 7 8 141 -63
190 -99 17 -13 36 -24 41 -24 6 0 12 -3 14 -7 2 -5 30 -28 62 -53 66 -50 237
-216 276 -268 14 -18 34 -43 44 -55 34 -40 145 -213 175 -273 52 -106 111
-253 127 -314 2 -8 12 -49 23 -90 48 -177 65 -334 63 -575 -1 -179 -3 -216
-17 -304 -3 -20 -8 -52 -11 -71 -10 -64 -42 -194 -70 -280 -32 -103 -103 -272
-118 -282 -6 -4 -8 -8 -3 -8 10 0 -98 -173 -153 -243 -25 -33 -52 -69 -60 -80
-21 -31 -231 -237 -241 -237 -4 0 -14 -6 -22 -14 -28 -28 -177 -126 -234 -153
-32 -15 -60 -30 -63 -33 -9 -10 -99 -50 -113 -50 -7 0 -21 -6 -32 -13 -24 -17
-223 -74 -285 -82 -24 -4 -47 -8 -50 -10 -30 -18 -485 -27 -585 -12 -102 16
-122 19 -145 24 -14 3 -35 6 -47 6 -13 1 -23 5 -23 10 0 4 -9 7 -19 7 -25 0
-201 60 -266 91 -341 160 -597 388 -775 689 -75 127 -176 355 -195 440 -2 8
-11 44 -20 80 -9 36 -18 79 -20 95 -1 17 -4 30 -5 30 -5 0 -20 108 -27 195 -8
99 -8 387 1 460 13 113 16 134 21 160 2 13 7 40 10 60 3 19 12 60 21 90 8 30
17 65 20 77 13 66 114 315 134 333 3 3 14 23 25 45 23 48 142 233 164 257 9 9
33 36 53 60 70 83 176 184 242 231 17 12 40 30 51 40 31 28 192 121 280 162
118 54 293 110 404 130 19 3 37 8 41 10 3 2 40 7 81 11 40 3 76 8 78 10 7 6
359 -3 421 -10z"/>
</g>
</svg>
